<?xml version="1.0" encoding="UTF-8" ?>
<!DOCTYPE svg PUBLIC "-//W3C//DTD SVG 1.1//EN" "http://www.w3.org/Graphics/SVG/1.1/DTD/svg11.dtd">
<svg width="64pt" height="64pt" viewBox="0 0 700 700" version="1.1" xmlns="http://www.w3.org/2000/svg">
<path fill="#3b2313" d=" M 167.74 11.27 C 167.20 14.15 165.84 16.96 166.35 19.94 C 167.05 24.08 169.38 27.75 172.25 30.72 C 178.34 37.34 186.11 42.09 193.87 46.48 C 211.61 56.17 230.56 63.37 248.60 72.45 C 260.06 78.38 271.34 85.27 279.95 95.04 C 289.51 105.55 294.35 119.83 294.31 133.93 C 294.88 158.64 283.53 181.87 269.18 201.34 C 275.85 204.92 282.12 209.19 288.11 213.81 C 298.39 214.27 308.74 213.87 319.05 214.00 C 318.41 207.67 318.29 201.28 317.08 195.02 C 315.17 172.69 313.37 150.35 311.46 128.03 C 311.20 121.71 309.90 115.43 310.47 109.10 C 310.27 103.74 309.44 98.41 309.31 93.05 C 309.12 91.08 311.55 90.89 312.94 90.98 C 337.32 91.03 361.71 90.98 386.09 91.00 C 387.45 90.78 389.29 91.48 389.20 93.10 C 388.97 99.72 387.80 106.31 388.13 112.95 C 386.06 140.32 383.88 167.68 381.75 195.05 C 380.42 200.92 380.40 206.95 379.75 212.90 C 378.23 207.99 379.89 202.82 379.87 197.79 C 377.90 197.78 375.93 197.77 373.97 197.76 C 359.65 197.74 345.33 197.93 331.01 197.80 C 329.53 198.13 326.93 197.23 326.47 199.24 C 325.93 204.15 326.63 209.32 324.28 213.90 C 341.43 214.12 358.58 213.98 375.74 213.96 C 377.18 213.96 378.63 213.96 380.08 213.97 C 389.72 214.02 399.36 214.00 409.00 214.00 C 410.43 214.25 411.39 213.03 412.45 212.33 C 417.73 208.12 423.51 204.61 429.35 201.23 C 415.99 182.75 405.06 161.27 404.40 138.05 C 403.82 124.20 407.15 109.82 415.74 98.71 C 422.84 89.13 432.77 82.12 443.03 76.27 C 465.66 63.62 490.64 55.60 512.68 41.83 C 520.03 36.88 527.93 31.46 531.54 23.03 C 533.17 19.34 532.20 15.34 530.95 11.71 C 537.98 19.20 543.37 28.32 546.90 37.97 C 551.17 49.55 550.40 63.16 543.51 73.59 C 534.38 87.69 518.78 96.09 503.15 101.03 C 511.39 103.92 520.95 103.96 528.79 99.82 C 533.28 97.49 536.87 93.25 537.61 88.15 C 539.94 93.76 541.03 100.28 538.86 106.11 C 536.99 111.61 532.53 115.77 527.71 118.77 C 518.74 124.31 508.32 126.64 498.60 130.47 C 484.10 136.05 469.75 142.73 457.68 152.67 C 448.59 160.07 441.28 170.00 438.34 181.46 C 436.90 186.72 436.54 192.18 436.20 197.60 C 457.36 187.48 479.89 180.72 501.43 171.49 C 520.79 163.20 539.55 152.31 553.79 136.53 C 565.65 123.45 573.19 107.11 578.48 90.42 C 579.05 88.83 579.29 87.02 580.52 85.75 C 585.58 96.79 589.15 108.44 592.63 120.05 C 598.19 138.89 602.43 158.25 603.02 177.94 C 604.10 204.48 602.86 231.42 595.70 257.12 C 590.69 274.66 582.74 291.77 570.23 305.25 C 567.04 308.89 563.09 311.74 559.62 315.09 C 575.27 311.79 589.14 299.65 593.58 284.15 C 598.45 301.93 597.08 321.04 591.39 338.47 C 580.78 369.92 557.31 395.84 529.50 413.32 C 510.67 425.05 489.29 433.21 467.07 434.97 C 450.45 436.27 433.23 433.67 418.45 425.68 C 400.55 416.35 387.42 399.66 379.52 381.36 C 371.36 362.37 367.63 341.61 367.53 321.00 C 364.67 329.38 366.23 338.34 366.65 346.97 C 368.28 376.94 369.88 406.92 371.33 436.90 C 373.14 470.25 374.95 503.65 374.01 537.05 C 373.64 563.85 370.94 590.57 367.47 617.14 C 364.93 636.49 360.53 655.58 354.12 674.02 C 352.39 678.43 351.58 683.19 349.40 687.41 C 346.79 680.84 343.65 674.39 342.30 667.41 C 345.13 669.98 345.37 674.10 347.03 677.38 C 347.78 679.66 348.60 681.92 349.48 684.17 C 350.25 682.00 350.97 679.82 351.62 677.62 C 357.76 659.83 362.72 641.62 365.38 622.97 C 370.29 588.90 373.30 554.50 373.02 520.06 C 373.32 484.35 370.51 448.72 368.97 413.06 C 367.64 387.19 366.23 361.32 364.80 335.46 C 364.04 326.77 366.20 318.04 370.28 310.38 C 371.75 307.35 373.96 304.47 374.05 300.96 C 375.64 280.27 376.00 259.49 378.17 238.85 C 376.79 239.03 375.42 239.22 374.05 239.41 C 368.30 240.21 362.52 240.86 356.79 241.84 C 355.80 250.53 356.22 259.31 355.31 268.01 C 353.83 302.65 354.17 337.32 353.62 371.97 C 352.80 399.97 353.13 428.00 352.68 456.00 C 351.61 488.32 352.40 520.67 351.33 552.99 C 351.52 564.98 350.75 576.96 351.00 588.95 C 351.00 593.77 351.19 598.60 350.64 603.41 C 349.47 603.46 348.30 603.52 347.14 603.58 C 346.67 583.68 347.36 563.76 346.78 543.87 C 346.47 519.26 345.77 494.66 346.00 470.05 C 345.62 455.04 345.37 440.03 345.26 425.02 C 344.57 409.04 345.45 393.03 344.64 377.05 C 344.88 367.69 344.07 358.35 344.29 348.98 C 343.57 334.93 344.41 320.86 343.74 306.81 C 343.41 290.53 343.17 274.23 342.08 257.98 C 341.90 252.42 342.06 246.83 341.11 241.33 C 335.17 240.34 329.32 238.81 323.32 238.18 C 323.44 239.80 323.57 241.42 323.71 243.04 C 323.48 241.43 323.17 239.83 322.89 238.23 C 322.03 237.88 321.17 237.52 320.31 237.18 C 320.10 239.35 320.59 241.79 319.12 243.63 C 318.94 241.47 318.72 239.33 318.41 237.18 C 315.14 236.70 311.86 236.26 308.58 235.85 C 313.35 243.21 317.48 250.97 320.72 259.12 C 320.56 257.74 320.39 256.36 320.25 254.98 C 320.62 255.26 321.36 255.81 321.73 256.09 C 323.36 271.32 324.85 286.60 325.43 301.92 C 325.96 309.00 331.08 314.48 332.66 321.25 C 335.24 331.34 333.07 341.81 333.16 352.06 C 333.35 360.17 333.05 368.37 331.12 376.28 C 331.43 366.86 331.85 357.44 332.00 348.02 C 331.81 339.30 333.41 330.48 331.47 321.87 C 330.75 334.65 329.63 347.51 326.40 359.96 C 321.12 381.39 310.81 402.36 293.69 416.78 C 279.63 428.64 261.31 435.00 242.98 435.29 C 217.87 436.13 193.22 427.76 171.82 415.05 C 150.22 402.06 131.38 384.17 118.35 362.52 C 105.43 341.17 98.93 315.26 103.66 290.47 C 104.18 288.57 103.94 286.26 105.44 284.79 C 108.95 297.87 119.81 308.10 132.09 313.16 C 134.43 313.92 137.07 315.65 139.42 314.01 C 141.02 314.54 142.15 315.82 143.27 317.02 C 126.74 315.61 111.56 304.09 105.33 288.79 C 100.45 310.55 104.89 333.60 114.81 353.33 C 127.27 378.11 147.52 398.51 171.00 413.03 C 192.55 426.13 217.51 435.00 242.99 434.02 C 260.74 433.84 278.50 427.63 292.21 416.28 C 305.63 405.30 314.94 390.01 320.83 373.85 C 326.44 358.53 329.20 342.28 329.98 326.02 C 329.89 322.15 330.78 317.89 328.50 314.46 C 326.24 310.66 324.32 306.53 324.11 302.04 C 323.58 290.71 322.56 279.41 321.60 268.10 C 321.33 265.70 320.94 263.28 320.07 261.02 C 316.56 252.05 312.22 243.37 306.64 235.50 C 300.76 234.95 294.90 234.26 289.01 233.91 C 288.74 233.57 288.21 232.90 287.94 232.56 C 296.65 231.52 305.48 232.13 314.08 233.72 C 317.58 234.25 320.52 236.49 324.00 237.08 C 327.68 237.76 331.39 238.23 335.05 239.00 C 340.96 240.12 346.90 242.06 352.98 241.16 C 361.85 240.40 370.64 237.74 379.58 238.43 C 378.84 245.09 377.79 251.74 377.97 258.46 C 381.40 251.21 384.78 243.93 389.14 237.18 L 386.68 237.56 C 386.97 237.32 387.55 236.83 387.84 236.59 C 389.66 236.20 391.52 236.01 393.38 235.84 L 394.58 236.40 C 393.09 236.86 391.02 236.54 390.18 238.16 C 385.43 245.21 381.76 252.95 378.64 260.84 C 376.21 266.91 377.42 273.56 376.65 279.90 C 375.73 287.89 376.34 296.01 374.89 303.94 C 373.07 309.36 368.50 313.93 368.62 319.95 C 368.89 344.47 373.72 369.45 385.80 391.01 C 394.17 406.10 406.87 419.10 422.65 426.36 C 440.40 434.70 460.88 435.81 479.93 431.97 C 510.02 426.00 537.50 409.67 558.95 387.98 C 571.83 374.46 582.76 358.76 589.09 341.09 C 595.39 324.49 596.86 306.22 593.65 288.78 C 586.83 303.64 572.30 315.55 555.67 316.77 C 558.57 313.58 562.26 311.28 565.30 308.24 C 579.13 295.47 587.79 278.11 593.42 260.38 C 600.05 238.26 602.51 215.01 602.00 191.97 C 602.40 173.85 600.53 155.67 596.12 138.08 C 591.95 121.31 587.15 104.62 580.40 88.69 C 575.42 104.55 568.83 120.22 558.29 133.24 C 549.53 144.27 538.32 153.09 526.33 160.36 C 506.67 172.09 484.89 179.46 463.57 187.50 C 445.70 194.34 427.65 201.84 412.62 213.94 C 421.60 214.22 430.60 213.66 439.57 214.23 C 437.74 214.69 435.87 215.05 433.98 215.04 C 379.66 214.93 325.35 215.06 271.03 214.99 C 267.15 215.01 263.19 215.36 259.41 214.27 C 268.30 213.58 277.23 214.31 286.13 213.88 C 273.77 204.43 259.78 197.38 245.38 191.64 C 224.70 183.28 203.30 176.63 183.35 166.56 C 168.06 158.69 153.46 148.86 142.27 135.64 C 130.82 122.38 123.78 106.04 118.48 89.51 C 115.97 92.77 115.16 96.90 113.67 100.64 C 105.28 125.35 97.89 150.80 96.94 177.04 C 95.57 201.03 96.88 225.30 102.14 248.80 C 106.37 267.02 113.52 284.94 125.26 299.68 C 129.08 304.58 133.82 308.63 138.24 312.97 L 139.10 313.85 L 137.17 313.54 C 117.78 297.74 106.75 274.02 101.15 250.10 C 94.45 220.24 93.79 189.24 97.28 158.91 C 100.54 137.40 106.63 116.40 114.00 95.96 C 115.40 92.50 116.40 88.81 118.60 85.74 C 122.43 97.51 126.54 109.31 132.87 120.02 C 141.39 135.03 154.12 147.32 168.61 156.56 C 197.45 175.45 231.70 182.86 262.48 197.76 C 262.12 189.73 261.19 181.57 257.81 174.19 C 253.76 164.69 246.59 156.87 238.48 150.64 C 225.74 140.94 210.92 134.40 195.96 128.94 C 184.61 124.84 171.84 121.89 163.54 112.46 C 158.64 107.15 157.75 99.26 159.59 92.49 C 160.08 91.38 159.80 89.53 161.11 89.02 C 162.42 93.50 165.35 97.47 169.55 99.63 C 177.31 104.03 186.72 103.65 195.10 101.43 C 194.83 101.17 194.29 100.67 194.02 100.41 C 179.93 96.13 166.44 88.35 157.29 76.62 C 150.53 67.96 147.65 56.39 149.79 45.59 C 152.16 32.65 159.50 21.27 167.74 11.27 Z" />
<path fill="#ed3532" d=" M 150.44 55.89 C 149.41 41.52 156.67 28.26 164.80 16.96 C 165.02 28.83 175.63 36.45 184.55 42.43 C 209.53 58.36 238.65 66.40 263.46 82.62 C 274.38 89.88 284.17 99.63 288.98 112.03 C 293.14 122.08 293.54 133.15 292.77 143.85 C 290.28 164.69 280.46 183.94 268.06 200.59 C 266.07 199.61 263.12 198.87 263.60 196.01 C 263.29 183.15 259.32 170.15 250.72 160.38 C 237.45 145.06 218.58 136.16 199.99 129.03 C 188.35 124.46 175.18 122.06 165.86 113.12 C 160.42 108.11 158.70 100.06 160.69 93.06 C 164.91 99.09 171.50 103.36 178.92 103.96 C 186.10 104.42 193.94 104.21 200.23 100.33 C 190.35 99.05 181.24 94.38 172.91 89.12 C 161.36 81.76 151.54 70.00 150.44 55.89 Z" />
<path fill="#ed3532" d=" M 533.93 17.44 C 542.67 28.53 549.50 42.47 548.10 56.94 C 546.96 69.28 538.73 79.71 529.03 86.86 C 519.96 93.30 509.67 98.72 498.55 100.36 C 503.93 103.78 510.70 104.21 516.93 104.13 C 525.21 104.14 533.76 100.12 537.84 92.69 C 538.94 96.68 539.37 100.95 537.91 104.91 C 535.88 111.52 530.19 116.15 524.26 119.22 C 516.28 123.54 507.38 125.66 498.96 128.94 C 484.88 134.27 470.96 140.65 458.99 149.92 C 449.22 157.43 441.05 167.51 437.58 179.48 C 435.80 185.46 435.33 191.71 434.84 197.89 C 433.94 199.43 431.79 199.64 430.29 200.37 C 416.51 181.03 404.95 158.40 405.66 134.05 C 405.44 119.43 410.92 104.71 421.26 94.28 C 428.66 86.36 437.90 80.48 447.38 75.36 C 470.17 63.24 495.07 55.15 516.65 40.77 C 524.56 35.14 533.37 27.94 533.93 17.44 Z" />
<path fill="#ed1c24" d=" M 580.40 88.69 C 587.15 104.62 591.95 121.31 596.12 138.08 C 600.53 155.67 602.40 173.85 602.00 191.97 C 602.51 215.01 600.05 238.26 593.42 260.38 C 587.79 278.11 579.13 295.47 565.30 308.24 C 562.26 311.28 558.57 313.58 555.67 316.77 C 572.30 315.55 586.83 303.64 593.65 288.78 C 596.86 306.22 595.39 324.49 589.09 341.09 C 582.76 358.76 571.83 374.46 558.95 387.98 C 537.50 409.67 510.02 426.00 479.93 431.97 C 460.88 435.81 440.40 434.70 422.65 426.36 C 406.87 419.10 394.17 406.10 385.80 391.01 C 373.72 369.45 368.89 344.47 368.62 319.95 C 368.50 313.93 373.07 309.36 374.89 303.94 C 376.34 296.01 375.73 287.89 376.65 279.90 C 377.42 273.56 376.21 266.91 378.64 260.84 C 381.76 252.95 385.43 245.21 390.18 238.16 C 391.02 236.54 393.09 236.86 394.58 236.40 C 403.09 235.85 411.48 234.06 419.98 233.40 C 425.40 233.13 429.78 237.27 435.11 237.57 C 439.95 238.00 445.49 236.38 447.84 231.78 C 452.01 225.10 447.26 215.42 439.57 214.23 C 430.60 213.66 421.60 214.22 412.62 213.94 C 427.65 201.84 445.70 194.34 463.57 187.50 C 484.89 179.46 506.67 172.09 526.33 160.36 C 538.32 153.09 549.53 144.27 558.29 133.24 C 568.83 120.22 575.42 104.55 580.40 88.69 Z" />
<path fill="#ed1c24" d=" M 113.67 100.64 C 115.16 96.90 115.97 92.77 118.48 89.51 C 123.78 106.04 130.82 122.38 142.27 135.64 C 153.46 148.86 168.06 158.69 183.35 166.56 C 203.30 176.63 224.70 183.28 245.38 191.64 C 259.78 197.38 273.77 204.43 286.13 213.88 C 277.23 214.31 268.30 213.58 259.41 214.27 C 259.21 214.30 258.79 214.37 258.58 214.41 C 254.53 215.47 250.94 218.36 249.46 222.33 C 247.36 227.69 250.39 234.21 255.60 236.44 C 259.34 238.03 263.58 237.64 267.43 236.67 C 270.56 235.43 273.52 233.37 277.00 233.34 C 281.01 233.33 285.00 233.81 289.01 233.91 C 294.90 234.26 300.76 234.95 306.64 235.50 C 312.22 243.37 316.56 252.05 320.07 261.02 C 320.94 263.28 321.33 265.70 321.60 268.10 C 322.56 279.41 323.58 290.71 324.11 302.04 C 324.32 306.53 326.24 310.66 328.50 314.46 C 330.78 317.89 329.89 322.15 329.98 326.02 C 329.20 342.28 326.44 358.53 320.83 373.85 C 314.94 390.01 305.63 405.30 292.21 416.28 C 278.50 427.63 260.74 433.84 242.99 434.02 C 217.51 435.00 192.55 426.13 171.00 413.03 C 147.52 398.51 127.27 378.11 114.81 353.33 C 104.89 333.60 100.45 310.55 105.33 288.79 C 111.56 304.09 126.74 315.61 143.27 317.02 C 142.15 315.82 141.02 314.54 139.42 314.01 C 139.12 313.75 138.53 313.23 138.24 312.97 C 133.82 308.63 129.08 304.58 125.26 299.68 C 113.52 284.94 106.37 267.02 102.14 248.80 C 96.88 225.30 95.57 201.03 96.94 177.04 C 97.89 150.80 105.28 125.35 113.67 100.64 Z" />
<path fill="#603813" d=" M 316.65 94.74 C 323.59 92.91 330.76 91.66 337.97 91.97 C 348.86 92.15 359.77 91.67 370.64 92.25 C 374.94 93.41 379.52 93.65 383.63 95.40 C 384.78 96.93 385.48 98.88 385.49 100.80 C 384.48 103.61 382.86 106.17 381.72 108.94 C 381.49 109.41 381.04 110.35 380.81 110.83 C 359.57 110.74 338.31 111.18 317.07 110.86 C 315.92 107.24 314.55 103.67 313.78 99.94 C 313.77 97.88 315.09 95.98 316.65 94.74 Z" />
<path fill="#8b5e3b" d=" M 370.64 92.25 C 376.42 91.74 382.25 92.01 388.05 92.13 C 388.01 98.28 387.16 104.39 386.92 110.53 C 385.09 110.63 383.26 110.64 381.45 110.59 L 381.72 108.94 C 382.86 106.17 384.48 103.61 385.49 100.80 C 385.48 98.88 384.78 96.93 383.63 95.40 C 379.52 93.65 374.94 93.41 370.64 92.25 Z" />
<path fill="#603813" d=" M 311.18 112.08 C 313.07 112.02 314.97 112.00 316.86 112.06 C 318.35 118.05 319.46 124.13 320.78 130.16 C 318.17 130.27 315.55 130.24 312.95 130.05 C 311.90 124.11 311.90 118.06 311.18 112.08 Z" />
<path fill="#764c29" d=" M 316.86 112.06 C 325.93 112.03 335.01 112.25 344.07 111.80 C 347.80 117.17 345.48 124.05 345.93 130.12 C 337.55 130.36 329.16 130.33 320.78 130.16 C 319.46 124.13 318.35 118.05 316.86 112.06 Z" />
<path fill="#8b5e3b" d=" M 344.07 111.80 C 356.39 111.74 368.71 111.73 381.03 111.83 C 380.07 117.93 379.03 124.02 378.00 130.11 C 375.82 129.79 373.61 129.78 371.43 130.10 C 362.93 130.11 354.43 130.28 345.93 130.12 C 345.48 124.05 347.80 117.17 344.07 111.80 Z" />
<path fill="#c49a6c" d=" M 381.03 111.83 C 383.10 111.76 385.17 111.74 387.24 111.75 C 386.74 117.94 386.25 124.12 385.82 130.31 C 383.22 130.59 380.56 130.76 378.00 130.11 C 379.03 124.02 380.07 117.93 381.03 111.83 Z" />
<path fill="#764c29" d=" M 371.43 130.10 C 373.61 129.78 375.82 129.79 378.00 130.11 C 377.95 130.54 377.83 131.40 377.78 131.83 C 369.68 132.57 361.47 130.84 353.33 132.02 C 353.26 135.12 352.82 138.21 351.96 141.20 C 342.75 138.91 333.67 136.11 324.51 133.63 C 323.01 133.23 321.56 132.66 320.28 131.79 C 323.72 130.63 327.39 131.20 330.96 131.09 C 339.31 130.82 347.68 131.52 356.03 130.88 C 361.15 130.46 366.45 131.66 371.43 130.10 Z" />
<path fill="#603813" d=" M 312.94 131.81 C 315.67 132.29 318.34 133.08 320.98 133.97 C 322.05 140.53 322.80 147.15 323.18 153.79 C 320.59 153.78 317.71 154.72 315.29 153.60 C 314.23 151.60 314.34 149.22 314.07 147.02 C 313.80 141.94 313.21 136.89 312.94 131.81 Z" />
<path fill="#8b5e3b" d=" M 353.33 132.02 C 361.47 130.84 369.68 132.57 377.78 131.83 C 377.53 137.22 376.60 142.55 376.11 147.92 C 367.99 145.96 359.97 143.58 351.96 141.20 C 352.82 138.21 353.26 135.12 353.33 132.02 Z" />
<path fill="#c49a6c" d=" M 377.78 131.83 C 380.37 131.35 383.01 131.44 385.64 131.48 C 385.23 137.76 384.77 144.04 384.16 150.30 C 382.50 149.85 380.84 149.39 379.20 148.89 C 378.79 148.76 377.98 148.51 377.57 148.38 L 376.11 147.92 C 376.60 142.55 377.53 137.22 377.78 131.83 Z" />
<path fill="#764c29" d=" M 320.98 133.97 C 330.29 135.96 339.26 139.33 348.60 141.21 L 348.53 141.55 C 347.41 145.60 349.16 149.74 348.23 153.81 C 339.88 153.84 331.53 153.98 323.18 153.79 C 322.80 147.15 322.05 140.53 320.98 133.97 Z" />
<path fill="#8b5e3b" d=" M 348.23 153.81 C 349.16 149.74 347.41 145.60 348.53 141.55 C 356.90 143.67 365.16 146.14 373.47 148.47 C 374.81 148.97 376.23 148.84 377.57 148.38 C 377.98 148.51 378.79 148.76 379.20 148.89 C 378.77 149.09 377.92 149.49 377.49 149.69 C 377.13 149.76 376.42 149.89 376.06 149.96 C 375.96 151.22 375.86 152.50 375.77 153.77 C 366.59 153.85 357.41 153.79 348.23 153.81 Z" />
<path fill="#c49a6c" d=" M 376.06 149.96 C 376.42 149.89 377.13 149.76 377.49 149.69 C 379.64 150.12 381.76 150.71 383.90 151.26 C 383.90 151.90 383.91 153.18 383.91 153.82 C 381.19 153.75 378.48 153.73 375.77 153.77 C 375.86 152.50 375.96 151.22 376.06 149.96 Z" />
<path fill="#603813" d=" M 314.98 155.01 C 317.88 154.78 320.79 154.72 323.70 154.81 C 323.84 161.60 324.06 168.39 324.83 175.15 C 322.24 175.15 319.59 175.52 317.04 174.93 C 315.82 173.62 316.23 171.60 315.96 169.98 C 315.86 164.97 314.93 160.02 314.98 155.01 Z" />
<path fill="#764c29" d=" M 323.70 154.81 C 330.01 154.76 336.34 154.50 342.64 154.97 C 340.66 162.25 346.09 168.29 347.22 175.14 C 339.76 175.37 332.29 175.33 324.83 175.15 C 324.06 168.39 323.84 161.60 323.70 154.81 Z" />
<path fill="#8b5e3b" d=" M 342.64 154.97 C 353.55 154.62 364.47 154.63 375.38 154.88 C 375.39 161.69 374.30 168.44 373.87 175.23 C 364.98 175.25 356.10 175.39 347.22 175.14 C 346.09 168.29 340.66 162.25 342.64 154.97 Z" />
<path fill="#c49a6c" d=" M 375.38 154.88 C 378.17 154.73 380.96 154.70 383.75 154.74 C 383.48 161.59 382.81 168.41 382.21 175.23 C 379.43 175.26 376.64 175.26 373.87 175.23 C 374.30 168.44 375.39 161.69 375.38 154.88 Z" />
<path fill="#f1592a" d=" M 114.10 213.08 C 117.84 200.26 122.85 187.75 128.85 175.84 C 130.05 178.79 130.33 181.98 131.08 185.05 C 132.50 191.26 135.14 197.14 138.36 202.62 C 143.07 210.42 150.28 216.46 158.33 220.60 C 172.29 227.33 187.86 229.24 203.06 231.13 C 229.02 234.29 255.92 236.39 279.70 248.23 C 294.19 255.11 307.59 266.34 313.32 281.71 C 315.73 287.85 316.89 294.46 317.00 301.05 C 317.06 326.88 307.33 352.24 291.32 372.36 C 283.91 381.54 275.73 390.17 266.28 397.27 C 255.11 404.40 242.15 408.76 228.98 410.07 C 218.69 410.93 207.86 409.60 198.86 404.23 C 192.70 400.48 187.89 394.66 185.08 388.03 C 181.16 378.77 179.66 368.74 176.65 359.19 C 174.85 353.50 171.90 347.73 166.65 344.52 C 163.69 342.82 160.21 342.53 156.99 341.54 C 167.54 337.31 179.38 332.71 190.76 336.34 C 196.20 337.86 199.92 342.35 202.73 346.98 C 205.94 337.83 204.47 327.10 198.54 319.37 C 195.77 315.70 191.75 313.25 187.66 311.28 C 172.12 303.89 154.95 300.81 139.35 293.56 C 128.98 288.59 119.62 280.41 115.51 269.43 C 107.85 251.66 108.71 231.36 114.10 213.08 Z" />
<path fill="#603813" d=" M 316.96 176.13 C 319.58 176.04 322.21 176.03 324.84 176.12 C 324.91 183.01 325.19 189.90 325.92 196.76 C 323.37 196.81 320.81 196.80 318.26 196.75 C 317.98 189.87 316.62 183.01 316.96 176.13 Z" />
<path fill="#764c29" d=" M 324.84 176.12 C 332.56 176.01 340.28 176.16 347.99 176.21 C 348.08 178.78 348.00 181.35 347.66 183.90 C 347.08 188.18 347.81 192.48 347.71 196.77 C 340.45 196.66 333.19 196.73 325.92 196.76 C 325.19 189.90 324.91 183.01 324.84 176.12 Z" />
<path fill="#8b5e3b" d=" M 347.99 176.21 C 356.61 176.16 365.23 176.19 373.84 176.23 C 373.26 183.03 372.88 189.89 373.72 196.68 L 373.74 196.87 C 365.06 196.59 356.38 196.77 347.71 196.77 C 347.81 192.48 347.08 188.18 347.66 183.90 C 348.00 181.35 348.08 178.78 347.99 176.21 Z" />
<path fill="#c49a6c" d=" M 373.84 176.23 C 376.55 176.26 379.26 176.25 381.97 176.19 C 381.86 183.10 381.20 190.01 380.43 196.87 C 378.19 196.78 375.95 196.73 373.72 196.68 C 372.88 189.89 373.26 183.03 373.84 176.23 Z" />
<path fill="#f1592a" d=" M 569.46 175.90 C 571.77 178.47 572.78 181.86 574.22 184.94 C 580.66 199.67 586.39 214.96 588.30 231.02 C 590.00 246.59 587.64 263.01 579.49 276.57 C 570.99 289.75 555.62 295.79 541.29 300.32 C 529.07 304.23 516.45 307.61 505.43 314.39 C 495.57 321.27 491.88 335.08 495.87 346.23 C 498.66 343.26 500.90 339.60 504.61 337.65 C 511.43 333.87 519.69 334.60 527.01 336.33 C 532.10 337.77 537.22 339.26 541.98 341.62 C 536.17 342.41 529.71 344.11 526.55 349.55 C 517.62 363.52 519.30 381.84 509.34 395.34 C 503.32 403.81 493.21 408.48 483.11 409.70 C 468.21 411.67 453.14 407.74 439.76 401.33 C 431.40 397.58 424.85 390.98 418.33 384.73 C 402.24 368.31 389.62 347.95 384.56 325.36 C 381.09 310.06 379.72 293.18 386.63 278.60 C 392.63 265.34 404.28 255.50 417.05 249.02 C 435.60 239.47 456.39 235.73 476.91 233.26 C 499.57 229.84 523.86 230.02 544.27 218.27 C 559.40 209.64 567.22 192.58 569.46 175.90 Z" />
<path fill="#603813" d=" M 326.47 199.24 C 326.93 197.23 329.53 198.13 331.01 197.80 C 345.33 197.93 359.65 197.74 373.97 197.76 C 373.94 203.20 373.83 208.77 375.74 213.96 C 358.58 213.98 341.43 214.12 324.28 213.90 C 326.63 209.32 325.93 204.15 326.47 199.24 Z" />
<path fill="#8b5e3b" d=" M 373.97 197.76 C 375.93 197.77 377.90 197.78 379.87 197.79 C 379.89 202.82 378.23 207.99 379.75 212.90 C 379.83 213.17 380.00 213.71 380.08 213.97 C 378.63 213.96 377.18 213.96 375.74 213.96 C 373.83 208.77 373.94 203.20 373.97 197.76 Z" />
<path fill="#603813" d=" M 258.58 214.41 C 258.79 214.37 259.21 214.30 259.41 214.27 C 263.19 215.36 267.15 215.01 271.03 214.99 C 325.35 215.06 379.66 214.93 433.98 215.04 C 435.87 215.05 437.74 214.69 439.57 214.23 C 447.26 215.42 452.01 225.10 447.84 231.78 C 445.49 236.38 439.95 238.00 435.11 237.57 C 429.78 237.27 425.40 233.13 419.98 233.40 C 411.48 234.06 403.09 235.85 394.58 236.40 L 393.38 235.84 C 400.87 234.10 408.58 233.77 416.14 232.42 C 404.36 229.86 392.34 232.99 381.09 236.43 C 382.62 236.86 384.16 237.32 385.71 237.73 C 383.68 238.07 381.64 238.46 379.58 238.43 C 370.64 237.74 361.85 240.40 352.98 241.16 C 346.90 242.06 340.96 240.12 335.05 239.00 C 331.39 238.23 327.68 237.76 324.00 237.08 C 320.52 236.49 317.58 234.25 314.08 233.72 C 305.48 232.13 296.65 231.52 287.94 232.56 C 288.21 232.90 288.74 233.57 289.01 233.91 C 285.00 233.81 281.01 233.33 277.00 233.34 C 273.52 233.37 270.56 235.43 267.43 236.67 C 264.26 233.94 259.96 233.57 256.37 231.71 C 253.61 229.32 253.00 224.91 254.66 221.72 C 255.93 219.26 257.87 217.13 258.58 214.41 Z" />
<path fill="#3b2313" d=" M 249.46 222.33 C 250.94 218.36 254.53 215.47 258.58 214.41 C 257.87 217.13 255.93 219.26 254.66 221.72 C 253.00 224.91 253.61 229.32 256.37 231.71 C 259.96 233.57 264.26 233.94 267.43 236.67 C 263.58 237.64 259.34 238.03 255.60 236.44 C 250.39 234.21 247.36 227.69 249.46 222.33 Z" />
<path fill="#764c29" d=" M 440.06 216.10 C 446.92 217.29 450.21 226.51 445.93 231.93 C 443.21 236.22 437.54 236.36 433.05 235.64 C 436.66 234.11 442.31 234.23 443.54 229.67 C 445.06 224.85 442.88 219.95 440.06 216.10 Z" />
<path fill="#764c29" d=" M 381.09 236.43 C 392.34 232.99 404.36 229.86 416.14 232.42 C 408.58 233.77 400.87 234.10 393.38 235.84 C 391.52 236.01 389.66 236.20 387.84 236.59 C 387.55 236.83 386.97 237.32 386.68 237.56 C 386.44 237.60 385.95 237.69 385.71 237.73 C 384.16 237.32 382.62 236.86 381.09 236.43 Z" />
<path fill="#ffffff" d=" M 308.58 235.85 C 311.86 236.26 315.14 236.70 318.41 237.18 C 318.72 239.33 318.94 241.47 319.12 243.63 C 319.41 247.42 319.90 251.19 320.25 254.98 C 320.39 256.36 320.56 257.74 320.72 259.12 C 317.48 250.97 313.35 243.21 308.58 235.85 Z" />
<path fill="#3a3a3c" d=" M 320.31 237.18 C 321.17 237.52 322.03 237.88 322.89 238.23 C 323.17 239.83 323.48 241.43 323.71 243.04 C 325.11 259.01 325.98 275.02 327.33 290.99 C 327.66 294.78 327.46 298.69 328.74 302.33 C 331.15 308.67 334.27 314.74 336.48 321.15 C 337.16 328.74 336.67 336.41 336.03 344.00 C 332.69 386.75 331.33 429.62 328.54 472.41 C 327.30 488.58 328.60 504.78 328.26 520.97 C 328.51 529.98 328.28 539.00 328.59 548.01 C 329.78 559.66 330.26 571.38 331.24 583.06 C 331.49 591.48 333.47 599.71 334.86 607.99 C 337.90 624.65 340.84 641.33 343.87 658.00 C 344.97 664.45 346.41 670.85 347.03 677.38 C 345.37 674.10 345.13 669.98 342.30 667.41 C 338.08 655.75 335.84 643.29 333.33 631.11 C 329.20 608.19 326.26 585.02 325.09 561.77 C 326.73 559.49 326.19 556.57 326.24 553.96 C 324.78 520.64 326.09 487.28 327.23 453.98 C 327.27 452.60 326.90 451.35 326.10 450.23 C 327.44 425.56 329.59 400.93 331.12 376.28 C 333.05 368.37 333.35 360.17 333.16 352.06 C 333.07 341.81 335.24 331.34 332.66 321.25 C 331.08 314.48 325.96 309.00 325.43 301.92 C 324.85 286.60 323.36 271.32 321.73 256.09 C 321.36 255.81 320.62 255.26 320.25 254.98 C 319.90 251.19 319.41 247.42 319.12 243.63 C 320.59 241.79 320.10 239.35 320.31 237.18 Z" />
<path fill="#ffffff" d=" M 379.58 238.43 C 381.64 238.46 383.68 238.07 385.71 237.73 C 385.95 237.69 386.44 237.60 386.68 237.56 L 389.14 237.18 C 384.78 243.93 381.40 251.21 377.97 258.46 C 377.79 251.74 378.84 245.09 379.58 238.43 Z" />
<path fill="#fff200" d=" M 186.69 244.82 C 194.37 240.64 203.15 237.90 211.97 238.90 C 222.75 239.92 232.34 247.23 237.24 256.73 C 244.02 269.50 246.22 284.03 251.75 297.30 C 254.01 302.38 257.42 307.55 262.91 309.46 C 267.66 311.25 272.87 309.58 277.05 307.11 C 278.60 306.07 280.70 305.12 280.93 303.03 C 283.26 293.96 283.00 284.29 280.50 275.29 C 278.75 269.24 275.86 263.32 271.13 259.04 C 276.28 259.84 280.59 263.25 284.44 266.57 C 295.98 277.45 300.27 293.70 301.70 309.01 C 302.39 320.28 302.33 331.92 298.71 342.74 C 292.08 358.45 282.57 373.51 268.70 383.77 C 258.56 391.33 245.54 395.83 232.85 393.68 C 222.61 392.11 213.42 386.16 206.83 378.30 C 202.38 372.91 199.44 366.50 196.94 360.02 C 203.88 364.77 212.99 363.58 220.27 360.29 C 226.15 357.75 230.89 353.25 234.80 348.26 C 227.89 349.83 221.31 346.15 216.77 341.20 C 205.36 329.99 201.13 314.13 195.24 299.77 C 191.40 290.28 184.46 280.95 174.02 278.43 C 162.64 275.69 151.74 281.40 141.84 286.27 C 144.51 281.95 147.95 278.17 151.23 274.31 C 161.51 262.83 173.08 252.22 186.69 244.82 Z" />
<path fill="#6d6e71" d=" M 323.32 238.18 C 329.32 238.81 335.17 240.34 341.11 241.33 C 342.06 246.83 341.90 252.42 342.08 257.98 C 343.17 274.23 343.41 290.53 343.74 306.81 C 344.41 320.86 343.57 334.93 344.29 348.98 C 344.07 358.35 344.88 367.69 344.64 377.05 C 345.45 393.03 344.57 409.04 345.26 425.02 C 345.37 440.03 345.62 455.04 346.00 470.05 C 345.77 494.66 346.47 519.26 346.78 543.87 C 347.36 563.76 346.67 583.68 347.14 603.58 C 348.30 603.52 349.47 603.46 350.64 603.41 C 351.19 598.60 351.00 593.77 351.00 588.95 C 350.75 576.96 351.52 564.98 351.33 552.99 C 352.40 520.67 351.61 488.32 352.68 456.00 C 353.13 428.00 352.80 399.97 353.62 371.97 C 354.17 337.32 353.83 302.65 355.31 268.01 C 356.22 259.31 355.80 250.53 356.79 241.84 C 362.52 240.86 368.30 240.21 374.05 239.41 C 374.44 243.30 374.12 247.19 373.72 251.07 C 372.48 267.71 371.41 284.37 370.07 301.00 C 368.75 307.07 365.49 312.52 363.28 318.29 C 360.04 324.39 361.50 331.48 361.40 338.08 C 363.09 360.14 364.60 382.22 365.58 404.32 C 366.97 431.56 368.65 458.79 369.99 486.03 C 369.84 506.35 369.65 526.67 369.53 546.99 C 368.27 562.66 367.39 578.36 365.91 594.00 C 361.26 620.82 356.25 647.58 351.50 674.37 C 351.42 675.45 351.46 676.53 351.62 677.62 C 350.97 679.82 350.25 682.00 349.48 684.17 C 348.60 681.92 347.78 679.66 347.03 677.38 C 346.41 670.85 344.97 664.45 343.87 658.00 C 340.84 641.33 337.90 624.65 334.86 607.99 C 333.47 599.71 331.49 591.48 331.24 583.06 C 330.26 571.38 329.78 559.66 328.59 548.01 C 328.28 539.00 328.51 529.98 328.26 520.97 C 328.60 504.78 327.30 488.58 328.54 472.41 C 331.33 429.62 332.69 386.75 336.03 344.00 C 336.67 336.41 337.16 328.74 336.48 321.15 C 334.27 314.74 331.15 308.67 328.74 302.33 C 327.46 298.69 327.66 294.78 327.33 290.99 C 325.98 275.02 325.11 259.01 323.71 243.04 C 323.57 241.42 323.44 239.80 323.32 238.18 Z" />
<path fill="#939598" d=" M 374.05 239.41 C 375.42 239.22 376.79 239.03 378.17 238.85 C 376.00 259.49 375.64 280.27 374.05 300.96 C 373.96 304.47 371.75 307.35 370.28 310.38 C 366.20 318.04 364.04 326.77 364.80 335.46 C 366.23 361.32 367.64 387.19 368.97 413.06 C 370.51 448.72 373.32 484.35 373.02 520.06 C 373.30 554.50 370.29 588.90 365.38 622.97 C 362.72 641.62 357.76 659.83 351.62 677.62 C 351.46 676.53 351.42 675.45 351.50 674.37 C 356.25 647.58 361.26 620.82 365.91 594.00 C 367.39 578.36 368.27 562.66 369.53 546.99 C 369.65 526.67 369.84 506.35 369.99 486.03 C 368.65 458.79 366.97 431.56 365.58 404.32 C 364.60 382.22 363.09 360.14 361.40 338.08 C 361.50 331.48 360.04 324.39 363.28 318.29 C 365.49 312.52 368.75 307.07 370.07 301.00 C 371.41 284.37 372.48 267.71 373.72 251.07 C 374.12 247.19 374.44 243.30 374.05 239.41 Z" />
<path fill="#fff200" d=" M 461.22 257.02 C 466.29 246.91 476.64 239.24 488.10 238.64 C 500.31 237.82 511.68 243.73 521.42 250.50 C 535.12 260.29 547.06 272.52 557.00 286.08 C 550.12 283.18 543.55 279.20 536.02 278.09 C 526.80 275.96 516.93 279.86 510.94 287.00 C 503.89 295.40 501.12 306.24 497.04 316.19 C 492.79 326.93 487.07 337.72 477.66 344.80 C 473.84 347.83 468.86 349.14 464.05 348.22 C 470.56 357.39 481.59 363.76 493.02 362.97 C 496.05 362.89 498.76 361.43 501.48 360.27 C 497.48 372.57 489.31 383.79 477.60 389.70 C 465.64 396.02 450.81 395.14 438.93 389.11 C 425.13 382.25 414.70 370.13 407.06 357.00 C 402.75 349.19 398.36 341.09 397.52 332.05 C 395.50 315.16 396.72 297.44 403.61 281.72 C 408.12 271.53 416.19 262.09 427.15 258.82 C 420.01 266.78 416.42 277.43 416.24 288.05 C 416.17 293.62 416.36 299.42 418.44 304.66 C 423.03 308.59 429.52 311.28 435.57 309.43 C 440.92 307.62 444.42 302.70 446.68 297.76 C 452.37 284.49 454.52 269.89 461.22 257.02 Z" />
<path fill="#a7a9ac" d=" M 342.75 241.89 C 346.89 242.80 351.15 242.63 355.31 241.96 C 354.50 263.63 352.91 285.29 353.05 307.00 C 352.94 330.65 352.60 354.30 352.04 377.95 C 352.16 407.98 351.50 438.00 351.05 468.02 C 351.20 493.68 350.45 519.31 350.31 544.95 C 349.63 563.60 350.45 582.30 349.50 600.93 C 349.14 601.28 348.41 601.98 348.05 602.33 C 347.88 593.56 348.03 584.80 348.34 576.04 C 347.80 561.02 348.04 545.99 347.96 530.97 C 347.18 496.33 347.00 461.68 346.65 427.03 C 345.79 398.98 346.20 370.90 345.40 342.85 C 345.27 327.55 344.83 312.26 344.96 296.96 C 344.45 278.59 343.51 260.25 342.75 241.89 Z" />
<path fill="#3b2313" d=" M 326.10 450.23 C 326.90 451.35 327.27 452.60 327.23 453.98 C 326.09 487.28 324.78 520.64 326.24 553.96 C 326.19 556.57 326.73 559.49 325.09 561.77 C 323.20 524.60 324.48 487.38 326.10 450.23 Z" />
</svg>
